<?xml version="1.0" encoding="UTF-8"?>
<svg width="30px" height="31px" viewBox="0 0 30 31" version="1.1" xmlns="http://www.w3.org/2000/svg" xmlns:xlink="http://www.w3.org/1999/xlink">
    <!-- Generator: Sketch 55.2 (78181) - https://sketchapp.com -->
    <title>xiannsuo</title>
    <desc>Created with Sketch.</desc>
    <g id="web" stroke="none" stroke-width="1" fill="none" fill-rule="evenodd">
        <g id="OA三个点展开" transform="translate(-233.000000, -638.000000)" fill="#4FBE96" fill-rule="nonzero">
            <g id="Group-19" transform="translate(80.000000, 245.000000)">
                <g id="线索" transform="translate(153.000000, 393.000000)">
                    <path d="M28.8125,12.44625 C28.8125,14.3664375 27.496625,15.9875625 25.7105,16.4866875 L25.7105,22.09875 C25.7105,25.21725 23.14475,27.75 19.9870625,27.75 C16.8273125,27.75 14.2615625,25.21725 14.2615625,22.09875 L14.2615625,8.65125 C14.2615625,6.7764375 12.725,5.2605 10.8254375,5.2605 C8.9279375,5.2605 7.391375,6.7764375 7.391375,8.65125 L7.391375,14.158125 C9.21296122,14.652196 10.4811121,16.3008766 10.4913125,18.18825 C10.4913125,20.4961875 8.5835,22.37925 6.2466875,22.37925 C3.9078125,22.3813125 2,20.49825 2,18.1903125 C2,16.278375 3.315875,14.6593125 5.102,14.1601875 L5.102,8.65125 C5.102,5.53275 7.66775,3 10.8254375,3 C13.9851875,3 16.5509375,5.53275 16.5509375,8.65125 L16.5509375,22.09875 C16.5509375,23.9735625 18.0875,25.4895 19.9870625,25.4895 C21.8845625,25.4895 23.421125,23.9735625 23.421125,22.09875 L23.421125,16.476375 C21.5995388,15.982304 20.3313879,14.3336234 20.3211875,12.44625 C20.3211875,10.1383125 22.229,8.25525 24.5658125,8.25525 C26.9046875,8.25525 28.8125,10.13625 28.8125,12.44625 Z M8.2019375,18.1903125 C8.19286159,17.1182388 7.3187898,16.2552312 6.2466875,16.2597842 C5.17378198,16.2540913 4.29845229,17.1174301 4.289375,18.1903125 C4.289375,19.2545625 5.168,20.1208125 6.2466875,20.1208125 C7.3233125,20.1208125 8.2019375,19.2545625 8.2019375,18.1903125 L8.2019375,18.1903125 Z M24.5658125,14.37675 C25.6445,14.37675 26.523125,13.5105 26.523125,12.44625 C26.5140477,11.3733676 25.638718,10.5100288 24.5658125,10.5157217 C23.4937102,10.5111687 22.6196384,11.3741763 22.6105625,12.44625 C22.6105625,13.5105 23.4891875,14.37675 24.5658125,14.37675 L24.5658125,14.37675 Z" id="Shape"></path>
                </g>
            </g>
        </g>
    </g>
</svg>