<?xml version="1.0" encoding="UTF-8"?>
<svg width="33px" height="34px" viewBox="0 0 33 34" version="1.1" xmlns="http://www.w3.org/2000/svg" xmlns:xlink="http://www.w3.org/1999/xlink">
    <!-- Generator: Sketch 55.2 (78181) - https://sketchapp.com -->
    <title>zhiduguanli</title>
    <desc>Created with Sketch.</desc>
    <g id="web" stroke="none" stroke-width="1" fill="none" fill-rule="evenodd">
        <g id="团队管理" transform="translate(-459.000000, -777.000000)" stroke="#FFBD38" stroke-width="3">
            <g id="Group-19" transform="translate(80.000000, 546.000000)">
                <g id="icon_zhidu" transform="translate(379.000000, 231.000000)">
                    <polyline id="Path" points="9.79980469 24 3 24 3 10 22 10"></polyline>
                    <path d="M11.5,4.18460325 L6.47990307,9.5 L16.5200969,9.5 L11.5,4.18460325 Z" id="Rectangle"></path>
                    <polygon id="Polygon" points="23 15 29.9282032 19 29.9282032 27 23 31 16.0717968 27 16.0717968 19"></polygon>
                    <circle id="Oval" cx="23" cy="23" r="2"></circle>
                    <path d="M11.8660909,14.1967441 C11.6040358,14.0706515 11.3102687,14 11,14 C9.8954305,14 9,14.8954305 9,16 C9,17.1045695 9.8954305,18 11,18 C12.1045695,18 13,17.1045695 13,16 M12.1486416,15.1470541 C12.0600629,15.0389928 11.9603884,14.9403766 11.8513584,14.8529459" id="Shape"></path>
                </g>
            </g>
        </g>
    </g>
</svg>